<svg xmlns="http://www.w3.org/2000/svg" width="156" height="256" viewBox="139 22 156 256" role="img">
<title>思考</title>
<g fill="none" stroke="#2E2C29" stroke-width="2.5" stroke-linecap="round" stroke-linejoin="round">
<circle cx="200" cy="78" r="32" fill="#FFFFFF"/>
<path d="M194,49 C196,36 210,38 210,50"/>
<circle cx="189" cy="71" r="3.5" fill="#2E2C29" stroke="none"/>
<circle cx="211" cy="71" r="3.5" fill="#2E2C29" stroke="none"/>
<path d="M192,88 C197,84 203,84 208,88"/>
<path d="M192,108 L192,116"/>
<path d="M208,108 L208,116"/>
<path d="M186,116 C174,117 166,124 160,134 C156,141 154,147 154,151 L170,148 C173,155 173,168 170,182 L230,182 C227,168 227,155 230,148 L246,151 C246,147 244,141 240,134 C234,124 226,117 214,116 Z" fill="#6E9EC4"/>
<path d="M188,117 C194,124 206,124 212,117"/>
<path d="M170,182 L230,182 C232,196 232,206 228,216 L206,216 L200,196 L194,216 L172,216 C168,206 168,196 170,182 Z" fill="#4E5A69"/>
<path d="M162,150 C158,166 158,180 160,190"/>
<circle cx="160" cy="197" r="6.5"/>
<path d="M238,150 C248,148 250,128 240,114 C234,107 228,103 221,102"/>
<circle cx="214" cy="100" r="6.5"/>
<path d="M182,216 C180,232 179,244 179,252"/>
<path d="M218,216 C220,232 221,244 221,252"/>
<ellipse cx="176" cy="257" rx="11" ry="6" fill="#4E5A69"/>
<ellipse cx="224" cy="257" rx="11" ry="6" fill="#4E5A69"/>
<circle cx="246" cy="76" r="4"/>
<circle cx="258" cy="63" r="5"/>
<circle cx="272" cy="50" r="9"/>
</g>
</svg>
